<svg version="1.2" xmlns="http://www.w3.org/2000/svg" viewBox="0 0 562 181" width="562" height="181">
	<title>TASKT-Logo-Colour-svg-1-svg</title>
	<style>
		.s0 { fill: #231f20 } 
		.s1 { fill: #016776 } 
		.s2 { fill: #02bea5 } 
	</style>
	<g id="Built_Around_You">
		<path id="Layer" fill-rule="evenodd" class="s0" d="m115.1 235.9q1.6 2 1.6 4.6 0 2.1-1 3.8-1.1 1.7-3.1 2.7-2.1 1-4.9 1h-9.7v-28h9.4q4.3 0 6.5 2 2.2 1.9 2.2 5.1 0 2.6-1.4 4.2-1.4 1.6-3.6 2.2 2.4 0.5 4 2.4zm-14.1-3.9h6.5q2.9 0 4.4-1.3 1.5-1.4 1.5-3.7c0-1.6-0.5-2.8-1.5-3.7q-1.5-1.3-4.5-1.3h-6.4zm11.5 11.6q1.7-1.5 1.7-4 0-2.6-1.8-4.1-1.8-1.5-4.8-1.5h-6.6v11h6.7q3.1 0 4.8-1.4z"/>
		<path id="Layer" class="s0" d="m132 220v17.4q0 4.1 2 6.1 2 2 5.5 2 3.5 0 5.5-2 2-2 2-6.1v-17.4h3v17.4q0 5.2-2.8 7.9-2.8 2.6-7.2 2.6-4.4 0-7.2-2.6-2.8-2.7-2.8-7.9v-17.4z"/>
		<path id="Layer" class="s0" d="m164 220h3v28h-3z"/>
		<path id="Layer" class="s0" d="m184 246h10v2h-13v-28h3z"/>
		<path id="Layer" class="s0" d="m222 220v3h-8v25h-3v-25h-7v-3z"/>
		<path id="Layer" fill-rule="evenodd" class="s0" d="m269.3 241h-13.5l-2.5 7h-2.3l10-27h3.1l10 27h-2.3zm-1.2-2l-5.5-14.9-5.4 14.9z"/>
		<path id="Layer" fill-rule="evenodd" class="s0" d="m301.4 248l-7.1-12h-5.3v12h-3v-28h9q5 0 7.6 2.2 2.6 2.3 2.6 5.9 0 3.1-1.9 5.2-1.8 2.2-5.5 2.8l7.7 11.9zm-12.4-14h5.8q3.4 0 5.1-1.7 1.7-1.6 1.7-4.4c0-1.8-0.5-3.3-1.6-4.3q-1.7-1.6-5.2-1.6h-5.8z"/>
		<path id="Layer" fill-rule="evenodd" class="s0" d="m323.1 246.2q-3.1-1.8-4.9-5-1.8-3.2-1.8-7.3 0-4.1 1.8-7.3 1.8-3.2 4.9-5 3.1-1.8 7-1.8c2.5 0 4.9 0.6 7 1.8q3.1 1.8 4.9 5 1.8 3.2 1.7 7.3 0.1 4.1-1.7 7.3-1.8 3.2-4.9 5-3.2 1.8-7 1.8-3.9 0-7-1.8zm12.5-2q2.5-1.5 3.9-4.1 1.4-2.7 1.4-6.2 0-3.5-1.4-6.2-1.4-2.6-3.9-4-2.4-1.5-5.5-1.5-3.1 0-5.6 1.5-2.4 1.4-3.9 4-1.4 2.7-1.4 6.2 0 3.5 1.4 6.2 1.5 2.7 3.9 4.1 2.5 1.4 5.6 1.4 3.1 0 5.5-1.4z"/>
		<path id="Layer" class="s0" d="m359 220v17.4q0 4.1 2 6.1 2 2 5.5 2 3.5 0 5.5-2 2-2 2-6.1v-17.4h3v17.4q0 5.2-2.8 7.9-2.8 2.6-7.2 2.6-4.4 0-7.2-2.6-2.8-2.7-2.8-7.9v-17.4z"/>
		<path id="Layer" class="s0" d="m412 248h-1.4l-16.6-23.6v23.6h-3v-28h1.4l16.6 23.5v-23.5h3z"/>
		<path id="Layer" fill-rule="evenodd" class="s0" d="m442.3 221.7q3.3 1.7 5 4.8 1.8 3.2 1.8 7.6c0 2.9-0.6 5.3-1.8 7.4q-1.7 3.2-5 4.8-3.4 1.7-8 1.7h-8.3v-28h8.3q4.6 0 8 1.7zm0.9 20.3q3-3 3-8.4c0-3.6-1-6.5-3-8.5q-3-3.1-8.8-3.1h-5.4v23h5.4q5.8 0 8.8-3z"/>
		<path id="Layer" class="s0" d="m499.6 220l-9.6 17.1v10.9h-3v-10.9l-9.7-17.1h3.4l7.8 14.5 7.8-14.5z"/>
		<path id="Layer" fill-rule="evenodd" class="s0" d="m516.1 246.2q-3.1-1.8-4.9-5-1.8-3.2-1.8-7.3 0-4.1 1.8-7.3 1.8-3.2 4.9-5 3.1-1.8 7-1.8c2.5 0 4.9 0.6 7 1.8q3.1 1.8 4.9 5 1.7 3.2 1.7 7.3 0 4.1-1.7 7.3-1.8 3.2-4.9 5-3.2 1.8-7 1.8-3.9 0-7-1.8zm12.5-2q2.4-1.5 3.9-4.1 1.4-2.7 1.4-6.2 0-3.5-1.4-6.2-1.5-2.6-3.9-4-2.5-1.5-5.5-1.5-3.1 0-5.6 1.5-2.4 1.4-3.9 4-1.4 2.7-1.4 6.2 0 3.5 1.4 6.2 1.5 2.7 3.9 4.1 2.5 1.4 5.6 1.4 3 0 5.5-1.4z"/>
		<path id="Layer" class="s0" d="m552 220v17.4q0 4.1 2 6.1 2 2 5.5 2 3.5 0 5.5-2 2-2 2-6.1v-17.4h3v17.4q0 5.2-2.8 7.9-2.8 2.6-7.2 2.6-4.4 0-7.2-2.6-2.8-2.7-2.8-7.9v-17.4z"/>
		<path id="Layer" class="s0" d="m43 208h584v2h-584z"/>
		<path id="Layer" class="s0" d="m43 256h584v2h-584z"/>
		<path id="Layer" class="s0" d="m55 201h2v65h-2z"/>
		<path id="Layer" class="s0" d="m616 201h2v65h-2z"/>
	</g>
	<g id="TASKT">
		<path id="Layer" class="s1" d="m370.1 108.5q-8.1-4.3-20.5-8.9-10.8-4.1-15.7-7-4.9-2.9-4.9-7.3 0-3.2 1.6-4.9 1.7-1.8 4.3-1.8 3.7 0 6.3 2.4 2.6 2.4 2.8 8h44.4q-0.8-20.2-15-31.4-14.2-11.1-38.3-11.1-14.3 0-25.7 4.6-11.4 4.7-18 13.7-6.6 9-6.6 21.8-0.2 12.8 5.7 21 6 8.1 14.2 12.4 8.3 4.3 20.9 8.7 10.6 3.7 15.6 6.6 5 2.9 5 7.5 0 3.4-2.3 5-2.3 1.5-5.7 1.5-9.1 0-10-11.3h-43.8q1.3 21.4 16.6 32.4 15.3 11.1 38.9 11.1 15.6 0 26.9-5.4 11.4-5.4 17.3-15 5.9-9.5 5.9-21.6c0-8-2-14-5.9-19.1q-5.9-7.6-14-11.9z"/>
		<path id="Layer" class="s1" d="m532.9 48h-47.5l-38.4 56v-56h-42v133h42v-57.7l39 57.7h49.9l-49.2-69.3z"/>
		<path id="Layer" class="s1" d="m57 48h43v133h-43z"/>
		<path id="Layer" class="s2" d="m598 0h-5.7c-10.5 0-18.9 8.6-18.1 19 0.8 9 8.3 16 17.5 16h5.4c10.5 0 18.9-8.6 18.1-19-0.8-9-8.3-16-17.5-16"/>
		<path id="Layer" class="s1" d="m182.5 49l-48.3 132h43.5l16.6-51 11.9-36.7 11.9 36.7 16.6 51h43.7l-48.2-132z"/>
		<path id="Layer" class="s1" d="m490.4 0h-489.4v35h524.3c19.6 0 35.5-15.7 35.5-35z"/>
	</g>
</svg>